<svg width="544" height="416" viewBox="0 0 544 416" fill="none" xmlns="http://www.w3.org/2000/svg">
<g id="illlus">
<path id="Vector 92" d="M406.443 294.036L364.023 270.718L330.702 317.15C350.168 332.362 382.872 343.425 399.771 340.047C434.451 333.114 504.533 240.911 514.257 233.891C547.361 209.994 558.122 200.925 516.699 219.494C477.206 237.198 498.123 219.494 488.447 219.494C476.823 220.254 480.675 229.915 484.99 236.837L406.443 294.036Z" fill="url(#paint0_linear)"/>
<path id="Vector 52" d="M165.749 258.711C177.717 250.929 225.008 236.911 245.776 230.874L267.75 233.119C281.594 236.333 311.29 241.812 324.95 246.998C338.61 252.183 363.399 268.72 386.525 282.51L381.502 298.801C376.325 315.588 363.19 328.734 346.407 333.924C342.087 359.646 338.362 401.463 338.977 414.427L178.267 414.31L170.909 350.662L137.815 353.982L109.86 333.924C144.864 277.23 150.788 268.439 165.749 258.711Z" fill="url(#paint1_linear)"/>
<path id="Vector 91" d="M119.772 404.965C68.852 398.92 101.97 350.595 110.998 334.636C121.941 343.261 135.179 348.476 149.064 349.631L167.167 351.136L159.981 366.658L237.556 383.664L248.439 411.935C240.687 410.699 183.094 412.484 119.772 404.965Z" fill="url(#paint2_linear)"/>
<path id="Vector 79" d="M251.192 104C253.698 99.7566 260.886 93.8154 269.587 104H251.192Z" fill="#30235B"/>
<ellipse id="Ellipse 188" cx="255.37" cy="249.383" rx="27.7371" ry="18.5082" fill="#CF0606"/>
<path id="Vector 83" d="M232.643 248.388L236.52 212.239H274.266L278.602 248.388C277.087 252.645 269.932 261.281 256.682 261.281C239.795 261.281 233.725 252.645 232.643 248.388Z" fill="url(#paint3_linear)"/>
<g id="Mask Group">
<mask id="mask0" mask-type="alpha" maskUnits="userSpaceOnUse" x="232" y="212" width="47" height="50">
<path id="Vector 81" d="M232.643 248.388L236.52 212.239H274.267L278.61 248.461C277.095 252.718 269.916 261.282 256.666 261.282C239.779 261.282 233.725 252.645 232.643 248.388Z" fill="url(#paint4_linear)"/>
</mask>
<g mask="url(#mask0)">
<path id="Vector 82" opacity="0.1" d="M287.87 213.623C253.74 253.165 234.667 221.371 224.815 216.602L231.585 189.87L271.998 185.351L287.87 213.623Z" fill="black"/>
</g>
</g>
<path id="Vector 77" d="M254.715 226.751C214.008 226.751 207.008 172.036 219.585 147.01C247.884 114.623 283.258 133.515 297.407 147.01C300.814 167.865 304.57 226.751 254.715 226.751Z" fill="url(#paint5_linear)"/>
<path id="Vector 89" d="M298.103 184.893L290.128 179.392L291.361 175.296L300.47 180.921L298.103 184.893Z" fill="#111111"/>
<path id="Vector 90" d="M215.012 183.298L222.987 177.796L221.753 173.701L212.644 179.325L215.012 183.298Z" fill="#111111"/>
<path id="Vector 78" d="M222.309 150.298C251.169 167.905 283.163 157.634 295.552 150.298C292.944 158.002 296.639 172.811 298.813 179.252C317.592 156.354 311.453 143.989 306.036 140.668C305.133 129.256 294.053 100.722 256.858 102.074C219.662 103.427 212.445 128.129 213.498 137.287C199.414 155.209 207.794 172.731 214.586 179.252C222.309 165.212 222.133 155.363 222.309 150.298Z" fill="#30235B"/>
<g id="Vector 80" filter="url(#filter0_d)">
<path d="M259.814 119.695C216.862 118.349 207.192 144.713 205.857 160.14C205.743 161.453 204.668 162.487 203.35 162.487C201.938 162.487 200.814 161.307 200.951 159.902C202.879 140.12 214.193 105.805 259.814 108.179C305.92 110.577 315.01 144.884 313.636 164.102C313.558 165.196 312.631 166.016 311.535 166.016C310.331 166.016 309.365 165.039 309.31 163.837C308.568 147.889 297.215 120.71 259.814 119.695Z" fill="white"/>
</g>
<g id="Rectangle 315" filter="url(#filter1_d)">
<rect width="5.83675" height="21.058" rx="2.91837" transform="matrix(0.986497 0.163781 -0.186044 0.982542 314.491 172.316)" fill="#24C28A"/>
</g>
<g id="Rectangle 312" filter="url(#filter2_d)">
<rect width="17.9789" height="43.867" rx="8.98944" transform="matrix(0.986497 0.163781 -0.186044 0.982542 301.927 158.693)" fill="white"/>
</g>
<g id="Rectangle 314" filter="url(#filter3_d)">
<rect width="5.83675" height="21.058" rx="2.91837" transform="matrix(-0.986497 0.163781 0.186044 0.982542 198.181 172.316)" fill="#24C28A"/>
</g>
<g id="Rectangle 313" filter="url(#filter4_d)">
<rect width="17.9789" height="43.867" rx="8.98944" transform="matrix(-0.986497 0.163781 0.186044 0.982542 210.581 158.693)" fill="white"/>
</g>
<g id="Mask Group_2">
<mask id="mask1" mask-type="alpha" maskUnits="userSpaceOnUse" x="194" y="160" width="24" height="44">
<rect id="Rectangle 316" width="17.9789" height="43.867" rx="8.98944" transform="matrix(-0.986497 0.163781 0.186044 0.982542 210.581 158.693)" fill="white"/>
</mask>
<g mask="url(#mask1)">
<rect id="Rectangle 317" width="23.3861" height="47.6193" transform="matrix(0.98638 -0.164484 0.186836 0.982391 202.098 158.693)" fill="#E8E8E8"/>
</g>
</g>
<g id="Mask Group_3">
<mask id="mask2" mask-type="alpha" maskUnits="userSpaceOnUse" x="295" y="160" width="24" height="44">
<rect id="Rectangle 316_2" width="17.9789" height="43.867" rx="8.98944" transform="matrix(0.986497 0.163781 -0.186044 0.982542 301.927 158.693)" fill="white"/>
</mask>
<g mask="url(#mask2)">
<rect id="Rectangle 317_2" width="23.3861" height="47.6193" transform="matrix(-0.98638 -0.164484 -0.186836 0.982391 311.502 158.693)" fill="#E8E8E8"/>
</g>
</g>
<path id="Vector 87" opacity="0.5" d="M237.175 191.284C231.416 191.284 228.516 187.034 227.779 185.137C226.931 183.55 226.262 179.415 228.269 176.13C230.82 171.954 242.812 170.789 247.013 176.689C251.214 182.589 247.013 191.284 237.175 191.284Z" fill="#E6FCFF"/>
<path id="Vector 88" opacity="0.5" d="M275.333 191.284C281.092 191.284 283.992 187.034 284.729 185.137C285.577 183.55 286.246 179.415 284.24 176.13C281.688 171.954 269.696 170.789 265.495 176.689C261.294 182.589 265.495 191.284 275.333 191.284Z" fill="#E6FCFF"/>
<path id="Subtract" fill-rule="evenodd" clip-rule="evenodd" d="M249.988 175.387C240.596 167.664 232.113 170.932 227.086 172.868C226.527 173.083 226.01 173.282 225.54 173.448L222.324 173.453C221.769 173.454 221.322 173.907 221.327 174.462L221.351 176.939C221.356 177.488 221.803 177.931 222.352 177.931L224.694 177.931C223.046 191.182 233.482 194.728 241.828 192.339C249.269 190.21 251.261 184.185 251.659 180.405C253.251 177.102 260.229 178.628 260.505 180.331C260.511 180.371 260.519 180.416 260.526 180.465C260.854 182.539 262.504 192.987 275.066 193.002C285.356 193.014 288.147 184.407 288.256 180.101L290.987 180.078C291.54 180.074 291.983 179.622 291.978 179.07L291.949 176.039C291.944 175.487 291.492 175.043 290.94 175.047L288.208 175.07C281.505 168.712 267.108 169.307 262.037 175.287C256.442 174.079 251.673 174.851 249.988 175.387ZM237.175 191.284C231.416 191.284 228.516 187.034 227.779 185.137C226.931 183.55 226.262 179.415 228.269 176.13C230.82 171.954 242.813 170.789 247.013 176.689C251.214 182.589 247.013 191.284 237.175 191.284ZM284.73 185.137C283.994 187.034 281.094 191.284 275.334 191.284C265.496 191.284 261.296 182.589 265.496 176.689C269.697 170.789 281.689 171.954 284.241 176.13C286.247 179.415 285.578 183.55 284.73 185.137Z" fill="#111111"/>
<g id="Group 1272">
<path id="Rectangle 319" d="M174.862 409.064C174.862 408.509 175.312 408.06 175.867 408.06H340.936C341.907 408.06 342.695 408.847 342.695 409.818C342.695 412.73 340.333 415.092 337.42 415.092H180.89C177.561 415.092 174.862 412.393 174.862 409.064Z" fill="#B4B4B4"/>
<rect id="Rectangle 318" x="174.862" y="305.524" width="167.832" height="105.147" rx="2.94666" fill="url(#paint6_linear)"/>
<ellipse id="Ellipse 192" cx="258.778" cy="358.098" rx="11.9358" ry="11.1765" fill="white"/>
</g>
<g id="stars1">
<path id="Union" fill-rule="evenodd" clip-rule="evenodd" d="M139.528 170.252C139.741 166.844 140.467 163.99 141.072 162.404C142.26 165.186 142.848 167.857 143.046 170.292C145.647 170.478 148.5 171.028 151.47 172.141C149.777 172.708 146.729 173.387 143.089 173.586C142.886 177.205 141.892 180.017 141.072 181.457C140.074 178.84 139.618 176.149 139.5 173.613C136.792 173.502 133.918 173.076 131.123 172.141C132.661 171.373 135.664 170.442 139.528 170.252Z" fill="url(#paint7_linear)"/>
<path id="Union_2" fill-rule="evenodd" clip-rule="evenodd" d="M110.814 147.826C110.956 145.557 111.439 143.657 111.841 142.602C112.632 144.453 113.023 146.231 113.156 147.852C114.887 147.976 116.785 148.342 118.763 149.083C117.635 149.46 115.607 149.912 113.184 150.045C113.049 152.454 112.387 154.325 111.841 155.284C111.177 153.542 110.874 151.75 110.795 150.063C108.993 149.989 107.079 149.705 105.219 149.083C106.243 148.572 108.241 147.952 110.814 147.826Z" fill="url(#paint8_linear)"/>
<path id="Union_3" fill-rule="evenodd" clip-rule="evenodd" d="M64.5473 131.848C64.7602 128.439 65.4859 125.586 66.0909 124C67.2792 126.782 67.8666 129.452 68.0652 131.888C70.6662 132.074 73.5184 132.624 76.4893 133.737C74.7955 134.303 71.7482 134.983 68.108 135.182C67.905 138.801 66.9111 141.613 66.0909 143.053C65.0928 140.436 64.6373 137.744 64.5185 135.209C61.811 135.098 58.9364 134.671 56.1417 133.737C57.6797 132.969 60.6825 132.038 64.5473 131.848Z" fill="url(#paint9_linear)"/>
<path id="Union_4" fill-rule="evenodd" clip-rule="evenodd" d="M68.5083 210.189C68.8214 205.174 69.8892 200.976 70.7792 198.642C72.5275 202.735 73.3917 206.664 73.6839 210.248C77.5107 210.521 81.707 211.331 86.0778 212.968C83.5858 213.801 79.1026 214.801 73.7469 215.094C73.4482 220.418 71.986 224.555 70.7792 226.674C69.3108 222.824 68.6407 218.864 68.4659 215.134C64.4826 214.97 60.2533 214.343 56.1417 212.968C58.4045 211.838 62.8223 210.468 68.5083 210.189Z" fill="url(#paint10_linear)"/>
<ellipse id="Ellipse 199" cx="101.047" cy="180.534" rx="1.96651" ry="1.8414" fill="#2F235A"/>
<ellipse id="Ellipse 200" cx="146.176" cy="127.737" rx="1.96651" ry="1.8414" fill="#FE9076"/>
<ellipse id="Ellipse 201" cx="47.2639" cy="173.224" rx="1.96651" ry="1.8414" fill="#FFA400"/>
<ellipse id="Ellipse 202" cx="135.397" cy="208.934" rx="1.96651" ry="1.8414" fill="#23BB86"/>
<path id="Vector 95" d="M141.358 120.052C136.912 114.334 124.388 102.121 109.86 99.0115" stroke="#FE9076" stroke-width="1.60277" stroke-linecap="round"/>
<path id="Vector 96" d="M38.9665 168.288C32.3953 164.801 15.6023 158.522 0.999989 161.309" stroke="#FFA400" stroke-width="1.60277" stroke-linecap="round"/>
<path id="Vector 97" d="M128.648 214.283C125.28 217.065 117.179 224.967 111.712 234.314" stroke="#23BB86" stroke-width="1.60277" stroke-linecap="round"/>
</g>
<g id="star2">
<g id="star2_2">
<path id="Union_5" fill-rule="evenodd" clip-rule="evenodd" d="M371.645 170.252C371.433 166.844 370.707 163.99 370.102 162.404C368.914 165.186 368.326 167.857 368.128 170.292C365.526 170.478 362.674 171.028 359.703 172.141C361.397 172.708 364.444 173.387 368.085 173.586C368.288 177.205 369.282 180.017 370.102 181.457C371.1 178.84 371.555 176.149 371.674 173.613C374.382 173.502 377.256 173.076 380.051 172.141C378.513 171.373 375.51 170.442 371.645 170.252Z" fill="url(#paint11_linear)"/>
<path id="Union_6" fill-rule="evenodd" clip-rule="evenodd" d="M400.36 147.826C400.218 145.557 399.735 143.657 399.333 142.602C398.542 144.453 398.151 146.231 398.018 147.852C396.287 147.976 394.388 148.342 392.411 149.083C393.538 149.46 395.567 149.912 397.99 150.045C398.125 152.454 398.787 154.325 399.333 155.284C399.997 153.542 400.3 151.75 400.379 150.063C402.181 149.989 404.095 149.705 405.955 149.083C404.931 148.572 402.932 147.952 400.36 147.826Z" fill="url(#paint12_linear)"/>
<path id="Union_7" fill-rule="evenodd" clip-rule="evenodd" d="M446.627 131.848C446.414 128.439 445.688 125.586 445.083 124C443.895 126.782 443.307 129.452 443.109 131.888C440.508 132.074 437.655 132.624 434.685 133.737C436.378 134.303 439.426 134.983 443.066 135.182C443.269 138.801 444.263 141.613 445.083 143.053C446.081 140.436 446.537 137.744 446.655 135.209C449.363 135.098 452.237 134.671 455.032 133.737C453.494 132.969 450.491 132.038 446.627 131.848Z" fill="url(#paint13_linear)"/>
<path id="Union_8" fill-rule="evenodd" clip-rule="evenodd" d="M442.666 210.189C442.352 205.174 441.285 200.976 440.395 198.642C438.646 202.735 437.782 206.664 437.49 210.248C433.663 210.521 429.467 211.331 425.096 212.968C427.588 213.801 432.071 214.801 437.427 215.094C437.726 220.418 439.188 224.555 440.395 226.674C441.863 222.824 442.533 218.864 442.708 215.134C446.691 214.97 450.921 214.343 455.032 212.968C452.769 211.838 448.352 210.468 442.666 210.189Z" fill="url(#paint14_linear)"/>
<ellipse id="Ellipse 199_2" rx="1.96651" ry="1.8414" transform="matrix(-1 0 0 1 410.127 180.534)" fill="#2F235A"/>
<ellipse id="Ellipse 200_2" rx="1.96651" ry="1.8414" transform="matrix(-1 0 0 1 364.997 127.737)" fill="#FE9076"/>
<ellipse id="Ellipse 201_2" rx="1.96651" ry="1.8414" transform="matrix(-1 0 0 1 463.91 173.224)" fill="#FFA400"/>
<ellipse id="Ellipse 202_2" rx="1.96651" ry="1.8414" transform="matrix(-1 0 0 1 375.777 208.934)" fill="#23BB86"/>
<path id="Vector 95_2" d="M369.816 120.052C374.262 114.334 386.786 102.121 401.314 99.0115" stroke="#FE9076" stroke-width="1.60277" stroke-linecap="round"/>
<path id="Vector 96_2" d="M472.207 168.288C478.779 164.801 495.572 158.522 510.174 161.309" stroke="#FFA400" stroke-width="1.60277" stroke-linecap="round"/>
<path id="Vector 97_2" d="M382.526 214.283C385.893 217.065 393.995 224.967 399.462 234.314" stroke="#23BB86" stroke-width="1.60277" stroke-linecap="round"/>
</g>
</g>
<g id="love">
<g id="Group 1301">
<g id="Group 1293">
<path id="Vector" d="M287.664 56.5506C285.434 53.3253 280.92 55.0823 280.92 58.5958C280.92 61.2342 287.108 65.3613 287.664 65.8979C288.223 65.3613 294.103 61.2342 294.103 58.5958C294.103 55.109 289.898 53.3253 287.664 56.5506Z" fill="#FFBCBC"/>
<path id="Ellipse 232" d="M302.271 60.3757C302.271 67.9774 295.684 74.1755 287.512 74.1755C279.34 74.1755 272.752 67.9774 272.752 60.3757C272.752 52.774 279.34 46.5758 287.512 46.5758C295.684 46.5758 302.271 52.774 302.271 60.3757Z" stroke="#F7F7F7" stroke-width="0.649684"/>
</g>
<g id="Group 1299">
<path id="Vector_2" d="M234.776 37.3174C232.803 34.4628 228.808 36.0179 228.808 39.1275C228.808 41.4626 234.284 45.1153 234.776 45.5902C235.271 45.1153 240.475 41.4626 240.475 39.1275C240.475 36.0415 236.753 34.4628 234.776 37.3174Z" fill="#FFBCBC"/>
<path id="Ellipse 232_2" d="M247.704 40.7028C247.704 47.4306 241.874 52.9162 234.642 52.9162C227.409 52.9162 221.579 47.4306 221.579 40.7028C221.579 33.9749 227.409 28.4893 234.642 28.4893C241.874 28.4893 247.704 33.9749 247.704 40.7028Z" stroke="#F7F7F7" stroke-width="0.574998"/>
</g>
<g id="Group 1297">
<path id="Vector_3" d="M269.679 16.3424C268.329 14.39 265.597 15.4536 265.597 17.5803C265.597 19.1774 269.343 21.6755 269.679 22.0004C270.018 21.6755 273.577 19.1774 273.577 17.5803C273.577 15.4697 271.031 14.39 269.679 16.3424Z" fill="#FFBCBC"/>
<path id="Ellipse 232_3" d="M278.521 18.6577C278.521 23.2591 274.534 27.0109 269.587 27.0109C264.641 27.0109 260.653 23.2591 260.653 18.6577C260.653 14.0564 264.641 10.3045 269.587 10.3045C274.534 10.3045 278.521 14.0564 278.521 18.6577Z" stroke="#F7F7F7" stroke-width="0.393259"/>
</g>
<g id="Group 1298">
<path id="Vector_4" d="M208.027 5.47825C206.923 3.88077 204.687 4.75102 204.687 6.49121C204.687 7.79795 207.752 9.84206 208.027 10.1078C208.304 9.84206 211.216 7.79795 211.216 6.49121C211.216 4.76422 209.134 3.88077 208.027 5.47825Z" fill="#FFBCBC"/>
<path id="Ellipse 232_4" d="M215.262 7.37273C215.262 11.1377 211.999 14.2076 207.952 14.2076C203.904 14.2076 200.642 11.1377 200.642 7.37273C200.642 3.60772 203.904 0.537843 207.952 0.537843C211.999 0.537843 215.262 3.60772 215.262 7.37273Z" stroke="#F7F7F7" stroke-width="0.321779"/>
</g>
<g id="Group 1294">
<path id="Vector_5" d="M202.595 80.3643C200.183 76.8765 195.303 78.7765 195.303 82.5759C195.303 85.4289 201.994 89.8918 202.595 90.4721C203.2 89.8918 209.558 85.4289 209.558 82.5759C209.558 78.8053 205.011 76.8765 202.595 80.3643Z" fill="#FFBCBC"/>
<path id="Ellipse 232_5" d="M218.391 84.5004C218.391 92.7206 211.267 99.423 202.43 99.423C193.594 99.423 186.47 92.7206 186.47 84.5004C186.47 76.2803 193.594 69.5778 202.43 69.5778C211.267 69.5778 218.391 76.2803 218.391 84.5004Z" stroke="#F7F7F7" stroke-width="0.702541"/>
</g>
</g>
</g>
</g>
<defs>
<filter id="filter0_d" x="166.94" y="78.0618" width="180.825" height="125.955" filterUnits="userSpaceOnUse" color-interpolation-filters="sRGB">
<feFlood flood-opacity="0" result="BackgroundImageFix"/>
<feColorMatrix in="SourceAlpha" type="matrix" values="0 0 0 0 0 0 0 0 0 0 0 0 0 0 0 0 0 0 127 0"/>
<feOffset dy="4"/>
<feGaussianBlur stdDeviation="17"/>
<feColorMatrix type="matrix" values="0 0 0 0 0.0386285 0 0 0 0 0.0648437 0 0 0 0 0.104167 0 0 0 0.13 0"/>
<feBlend mode="normal" in2="BackgroundImageFix" result="effect1_dropShadow"/>
<feBlend mode="normal" in="SourceGraphic" in2="effect1_dropShadow" result="shape"/>
</filter>
<filter id="filter1_d" x="277.065" y="142.754" width="76.6923" height="88.7704" filterUnits="userSpaceOnUse" color-interpolation-filters="sRGB">
<feFlood flood-opacity="0" result="BackgroundImageFix"/>
<feColorMatrix in="SourceAlpha" type="matrix" values="0 0 0 0 0 0 0 0 0 0 0 0 0 0 0 0 0 0 127 0"/>
<feOffset dy="4"/>
<feGaussianBlur stdDeviation="17"/>
<feColorMatrix type="matrix" values="0 0 0 0 0.0386285 0 0 0 0 0.0648437 0 0 0 0 0.104167 0 0 0 0.13 0"/>
<feBlend mode="normal" in2="BackgroundImageFix" result="effect1_dropShadow"/>
<feBlend mode="normal" in="SourceGraphic" in2="effect1_dropShadow" result="shape"/>
</filter>
<filter id="filter2_d" x="261.281" y="130.042" width="90.8683" height="111.348" filterUnits="userSpaceOnUse" color-interpolation-filters="sRGB">
<feFlood flood-opacity="0" result="BackgroundImageFix"/>
<feColorMatrix in="SourceAlpha" type="matrix" values="0 0 0 0 0 0 0 0 0 0 0 0 0 0 0 0 0 0 127 0"/>
<feOffset dy="4"/>
<feGaussianBlur stdDeviation="17"/>
<feColorMatrix type="matrix" values="0 0 0 0 0.0386285 0 0 0 0 0.0648437 0 0 0 0 0.104167 0 0 0 0.13 0"/>
<feBlend mode="normal" in2="BackgroundImageFix" result="effect1_dropShadow"/>
<feBlend mode="normal" in="SourceGraphic" in2="effect1_dropShadow" result="shape"/>
</filter>
<filter id="filter3_d" x="158.914" y="142.754" width="76.6923" height="88.7704" filterUnits="userSpaceOnUse" color-interpolation-filters="sRGB">
<feFlood flood-opacity="0" result="BackgroundImageFix"/>
<feColorMatrix in="SourceAlpha" type="matrix" values="0 0 0 0 0 0 0 0 0 0 0 0 0 0 0 0 0 0 127 0"/>
<feOffset dy="4"/>
<feGaussianBlur stdDeviation="17"/>
<feColorMatrix type="matrix" values="0 0 0 0 0.0386285 0 0 0 0 0.0648437 0 0 0 0 0.104167 0 0 0 0.13 0"/>
<feBlend mode="normal" in2="BackgroundImageFix" result="effect1_dropShadow"/>
<feBlend mode="normal" in="SourceGraphic" in2="effect1_dropShadow" result="shape"/>
</filter>
<filter id="filter4_d" x="160.359" y="130.042" width="90.8683" height="111.348" filterUnits="userSpaceOnUse" color-interpolation-filters="sRGB">
<feFlood flood-opacity="0" result="BackgroundImageFix"/>
<feColorMatrix in="SourceAlpha" type="matrix" values="0 0 0 0 0 0 0 0 0 0 0 0 0 0 0 0 0 0 127 0"/>
<feOffset dy="4"/>
<feGaussianBlur stdDeviation="17"/>
<feColorMatrix type="matrix" values="0 0 0 0 0.0386285 0 0 0 0 0.0648437 0 0 0 0 0.104167 0 0 0 0.13 0"/>
<feBlend mode="normal" in2="BackgroundImageFix" result="effect1_dropShadow"/>
<feBlend mode="normal" in="SourceGraphic" in2="effect1_dropShadow" result="shape"/>
</filter>
<linearGradient id="paint0_linear" x1="417.264" y1="158.698" x2="419.742" y2="334.571" gradientUnits="userSpaceOnUse">
<stop stop-color="#FFEFE0"/>
<stop offset="1" stop-color="#FFBE99"/>
</linearGradient>
<linearGradient id="paint1_linear" x1="258.668" y1="200.585" x2="247.053" y2="448.999" gradientUnits="userSpaceOnUse">
<stop stop-color="#FF9F81"/>
<stop offset="1" stop-color="#F53838"/>
</linearGradient>
<linearGradient id="paint2_linear" x1="242.579" y1="287.86" x2="119.085" y2="351.067" gradientUnits="userSpaceOnUse">
<stop offset="0.0677966" stop-color="#FFEFE0"/>
<stop offset="1" stop-color="#FFBE99"/>
</linearGradient>
<linearGradient id="paint3_linear" x1="254.321" y1="173.352" x2="256.269" y2="239.746" gradientUnits="userSpaceOnUse">
<stop stop-color="#FFEFE0"/>
<stop offset="1" stop-color="#FFBE99"/>
</linearGradient>
<linearGradient id="paint4_linear" x1="254.321" y1="173.352" x2="251.592" y2="248.996" gradientUnits="userSpaceOnUse">
<stop stop-color="#FFEFE0"/>
<stop offset="1" stop-color="#FFBE99"/>
</linearGradient>
<linearGradient id="paint5_linear" x1="258.012" y1="137.96" x2="258.012" y2="217.679" gradientUnits="userSpaceOnUse">
<stop stop-color="#FFEFE0"/>
<stop offset="1" stop-color="#FFBE99"/>
</linearGradient>
<linearGradient id="paint6_linear" x1="293.434" y1="226.611" x2="238.538" y2="436.973" gradientUnits="userSpaceOnUse">
<stop offset="0.0171777" stop-color="white"/>
<stop offset="1" stop-color="#D7D7D7"/>
</linearGradient>
<linearGradient id="paint7_linear" x1="141.297" y1="164.432" x2="141.297" y2="182.322" gradientUnits="userSpaceOnUse">
<stop stop-color="#FFE89E"/>
<stop offset="1" stop-color="#FFBF1A"/>
</linearGradient>
<linearGradient id="paint8_linear" x1="111.991" y1="143.952" x2="111.991" y2="155.859" gradientUnits="userSpaceOnUse">
<stop stop-color="#FFE89E"/>
<stop offset="1" stop-color="#FFBF1A"/>
</linearGradient>
<linearGradient id="paint9_linear" x1="66.3155" y1="126.028" x2="66.3155" y2="143.917" gradientUnits="userSpaceOnUse">
<stop stop-color="#FFE89E"/>
<stop offset="1" stop-color="#FFBF1A"/>
</linearGradient>
<linearGradient id="paint10_linear" x1="71.1098" y1="201.626" x2="71.1098" y2="227.946" gradientUnits="userSpaceOnUse">
<stop stop-color="#FFE89E"/>
<stop offset="1" stop-color="#FFBF1A"/>
</linearGradient>
<linearGradient id="paint11_linear" x1="369.877" y1="164.432" x2="369.877" y2="182.322" gradientUnits="userSpaceOnUse">
<stop stop-color="#FFE89E"/>
<stop offset="1" stop-color="#FFBF1A"/>
</linearGradient>
<linearGradient id="paint12_linear" x1="399.183" y1="143.952" x2="399.183" y2="155.859" gradientUnits="userSpaceOnUse">
<stop stop-color="#FFE89E"/>
<stop offset="1" stop-color="#FFBF1A"/>
</linearGradient>
<linearGradient id="paint13_linear" x1="444.858" y1="126.028" x2="444.858" y2="143.917" gradientUnits="userSpaceOnUse">
<stop stop-color="#FFE89E"/>
<stop offset="1" stop-color="#FFBF1A"/>
</linearGradient>
<linearGradient id="paint14_linear" x1="440.064" y1="201.626" x2="440.064" y2="227.946" gradientUnits="userSpaceOnUse">
<stop stop-color="#FFE89E"/>
<stop offset="1" stop-color="#FFBF1A"/>
</linearGradient>
</defs>
</svg>
